<mxfile host="app.diagrams.net" modified="2023-05-25T21:01:56.795Z" agent="Mozilla/5.0 (Macintosh; Intel Mac OS X 10_15_7) AppleWebKit/537.36 (KHTML, like Gecko) Chrome/113.0.0.0 Safari/537.36" etag="qdT8S_PivUkw_iDKlPW6" version="21.3.4" type="device">
  <diagram name="Page-1" id="bAMfnb38L768SlVYbbgq">
    <mxGraphModel dx="1242" dy="755" grid="1" gridSize="10" guides="1" tooltips="1" connect="1" arrows="1" fold="1" page="1" pageScale="1" pageWidth="827" pageHeight="1169" math="0" shadow="0">
      <root>
        <mxCell id="0" />
        <mxCell id="1" parent="0" />
        <mxCell id="TZZve2Wj5NS5FVVDZx7G-2" value="ID" style="ellipse;whiteSpace=wrap;html=1;" vertex="1" parent="1">
          <mxGeometry x="130" y="140" width="80" height="30" as="geometry" />
        </mxCell>
        <mxCell id="TZZve2Wj5NS5FVVDZx7G-3" value="Title" style="ellipse;whiteSpace=wrap;html=1;" vertex="1" parent="1">
          <mxGeometry x="190" y="100" width="70" height="30" as="geometry" />
        </mxCell>
        <mxCell id="TZZve2Wj5NS5FVVDZx7G-4" value="ISBN" style="ellipse;whiteSpace=wrap;html=1;" vertex="1" parent="1">
          <mxGeometry x="285" y="70" width="85" height="30" as="geometry" />
        </mxCell>
        <mxCell id="TZZve2Wj5NS5FVVDZx7G-5" value="yearOfPublication" style="ellipse;whiteSpace=wrap;html=1;" vertex="1" parent="1">
          <mxGeometry x="390" y="90" width="110" height="40" as="geometry" />
        </mxCell>
        <mxCell id="TZZve2Wj5NS5FVVDZx7G-6" value="Price" style="ellipse;whiteSpace=wrap;html=1;" vertex="1" parent="1">
          <mxGeometry x="470" y="140" width="80" height="30" as="geometry" />
        </mxCell>
        <mxCell id="TZZve2Wj5NS5FVVDZx7G-7" value="" style="endArrow=none;html=1;rounded=0;entryX=0;entryY=0.5;entryDx=0;entryDy=0;exitX=0.5;exitY=0;exitDx=0;exitDy=0;" edge="1" parent="1" source="TZZve2Wj5NS5FVVDZx7G-1" target="TZZve2Wj5NS5FVVDZx7G-6">
          <mxGeometry width="50" height="50" relative="1" as="geometry">
            <mxPoint x="390" y="420" as="sourcePoint" />
            <mxPoint x="440" y="370" as="targetPoint" />
          </mxGeometry>
        </mxCell>
        <mxCell id="TZZve2Wj5NS5FVVDZx7G-8" value="" style="endArrow=none;html=1;rounded=0;entryX=0;entryY=1;entryDx=0;entryDy=0;exitX=0.5;exitY=0;exitDx=0;exitDy=0;" edge="1" parent="1" source="TZZve2Wj5NS5FVVDZx7G-1" target="TZZve2Wj5NS5FVVDZx7G-5">
          <mxGeometry width="50" height="50" relative="1" as="geometry">
            <mxPoint x="390" y="420" as="sourcePoint" />
            <mxPoint x="440" y="370" as="targetPoint" />
          </mxGeometry>
        </mxCell>
        <mxCell id="TZZve2Wj5NS5FVVDZx7G-9" value="" style="endArrow=none;html=1;rounded=0;entryX=0.5;entryY=1;entryDx=0;entryDy=0;exitX=0.5;exitY=0;exitDx=0;exitDy=0;" edge="1" parent="1" source="TZZve2Wj5NS5FVVDZx7G-1" target="TZZve2Wj5NS5FVVDZx7G-4">
          <mxGeometry width="50" height="50" relative="1" as="geometry">
            <mxPoint x="390" y="420" as="sourcePoint" />
            <mxPoint x="440" y="370" as="targetPoint" />
          </mxGeometry>
        </mxCell>
        <mxCell id="TZZve2Wj5NS5FVVDZx7G-10" value="" style="endArrow=none;html=1;rounded=0;entryX=1;entryY=1;entryDx=0;entryDy=0;exitX=0.5;exitY=0;exitDx=0;exitDy=0;" edge="1" parent="1" source="TZZve2Wj5NS5FVVDZx7G-1" target="TZZve2Wj5NS5FVVDZx7G-3">
          <mxGeometry width="50" height="50" relative="1" as="geometry">
            <mxPoint x="330" y="250" as="sourcePoint" />
            <mxPoint x="440" y="370" as="targetPoint" />
          </mxGeometry>
        </mxCell>
        <mxCell id="TZZve2Wj5NS5FVVDZx7G-11" value="" style="endArrow=none;html=1;rounded=0;entryX=1;entryY=1;entryDx=0;entryDy=0;exitX=0.5;exitY=0;exitDx=0;exitDy=0;" edge="1" parent="1" source="TZZve2Wj5NS5FVVDZx7G-1" target="TZZve2Wj5NS5FVVDZx7G-2">
          <mxGeometry width="50" height="50" relative="1" as="geometry">
            <mxPoint x="390" y="420" as="sourcePoint" />
            <mxPoint x="440" y="370" as="targetPoint" />
          </mxGeometry>
        </mxCell>
        <mxCell id="TZZve2Wj5NS5FVVDZx7G-12" value="Author" style="rounded=0;whiteSpace=wrap;html=1;" vertex="1" parent="1">
          <mxGeometry x="267.5" y="530" width="120" height="45" as="geometry" />
        </mxCell>
        <mxCell id="TZZve2Wj5NS5FVVDZx7G-1" value="Book" style="rounded=0;whiteSpace=wrap;html=1;" vertex="1" parent="1">
          <mxGeometry x="267.5" y="190" width="120" height="40" as="geometry" />
        </mxCell>
        <mxCell id="TZZve2Wj5NS5FVVDZx7G-14" value="ID" style="ellipse;whiteSpace=wrap;html=1;" vertex="1" parent="1">
          <mxGeometry x="140" y="630" width="90" height="40" as="geometry" />
        </mxCell>
        <mxCell id="TZZve2Wj5NS5FVVDZx7G-15" value="name" style="ellipse;whiteSpace=wrap;html=1;" vertex="1" parent="1">
          <mxGeometry x="220" y="690" width="90" height="40" as="geometry" />
        </mxCell>
        <mxCell id="TZZve2Wj5NS5FVVDZx7G-16" value="email" style="ellipse;whiteSpace=wrap;html=1;" vertex="1" parent="1">
          <mxGeometry x="330" y="690" width="96" height="45" as="geometry" />
        </mxCell>
        <mxCell id="TZZve2Wj5NS5FVVDZx7G-17" value="biography" style="ellipse;whiteSpace=wrap;html=1;" vertex="1" parent="1">
          <mxGeometry x="400" y="630" width="120" height="50" as="geometry" />
        </mxCell>
        <mxCell id="TZZve2Wj5NS5FVVDZx7G-18" value="" style="endArrow=none;html=1;rounded=0;exitX=1;exitY=0.5;exitDx=0;exitDy=0;entryX=0.5;entryY=1;entryDx=0;entryDy=0;" edge="1" parent="1" source="TZZve2Wj5NS5FVVDZx7G-14" target="TZZve2Wj5NS5FVVDZx7G-12">
          <mxGeometry width="50" height="50" relative="1" as="geometry">
            <mxPoint x="390" y="420" as="sourcePoint" />
            <mxPoint x="440" y="370" as="targetPoint" />
          </mxGeometry>
        </mxCell>
        <mxCell id="TZZve2Wj5NS5FVVDZx7G-19" value="" style="endArrow=none;html=1;rounded=0;exitX=0.5;exitY=0;exitDx=0;exitDy=0;entryX=0.5;entryY=1;entryDx=0;entryDy=0;" edge="1" parent="1" source="TZZve2Wj5NS5FVVDZx7G-15" target="TZZve2Wj5NS5FVVDZx7G-12">
          <mxGeometry width="50" height="50" relative="1" as="geometry">
            <mxPoint x="390" y="420" as="sourcePoint" />
            <mxPoint x="440" y="370" as="targetPoint" />
          </mxGeometry>
        </mxCell>
        <mxCell id="TZZve2Wj5NS5FVVDZx7G-20" value="" style="endArrow=none;html=1;rounded=0;exitX=0.5;exitY=0;exitDx=0;exitDy=0;entryX=0.5;entryY=1;entryDx=0;entryDy=0;" edge="1" parent="1" source="TZZve2Wj5NS5FVVDZx7G-16" target="TZZve2Wj5NS5FVVDZx7G-12">
          <mxGeometry width="50" height="50" relative="1" as="geometry">
            <mxPoint x="390" y="420" as="sourcePoint" />
            <mxPoint x="440" y="370" as="targetPoint" />
          </mxGeometry>
        </mxCell>
        <mxCell id="TZZve2Wj5NS5FVVDZx7G-21" value="" style="endArrow=none;html=1;rounded=0;exitX=0;exitY=0;exitDx=0;exitDy=0;entryX=0.5;entryY=1;entryDx=0;entryDy=0;" edge="1" parent="1" source="TZZve2Wj5NS5FVVDZx7G-17" target="TZZve2Wj5NS5FVVDZx7G-12">
          <mxGeometry width="50" height="50" relative="1" as="geometry">
            <mxPoint x="390" y="420" as="sourcePoint" />
            <mxPoint x="440" y="370" as="targetPoint" />
          </mxGeometry>
        </mxCell>
        <mxCell id="TZZve2Wj5NS5FVVDZx7G-22" value="" style="rhombus;whiteSpace=wrap;html=1;" vertex="1" parent="1">
          <mxGeometry x="290" y="330" width="80" height="80" as="geometry" />
        </mxCell>
        <mxCell id="TZZve2Wj5NS5FVVDZx7G-23" value="" style="endArrow=none;html=1;rounded=0;exitX=0.5;exitY=0;exitDx=0;exitDy=0;entryX=0.5;entryY=1;entryDx=0;entryDy=0;" edge="1" parent="1" source="TZZve2Wj5NS5FVVDZx7G-12" target="TZZve2Wj5NS5FVVDZx7G-22">
          <mxGeometry width="50" height="50" relative="1" as="geometry">
            <mxPoint x="390" y="420" as="sourcePoint" />
            <mxPoint x="440" y="370" as="targetPoint" />
          </mxGeometry>
        </mxCell>
        <mxCell id="TZZve2Wj5NS5FVVDZx7G-24" value="" style="endArrow=none;html=1;rounded=0;entryX=0.5;entryY=1;entryDx=0;entryDy=0;exitX=0.5;exitY=0;exitDx=0;exitDy=0;" edge="1" parent="1" source="TZZve2Wj5NS5FVVDZx7G-22" target="TZZve2Wj5NS5FVVDZx7G-1">
          <mxGeometry width="50" height="50" relative="1" as="geometry">
            <mxPoint x="390" y="420" as="sourcePoint" />
            <mxPoint x="440" y="370" as="targetPoint" />
          </mxGeometry>
        </mxCell>
        <mxCell id="TZZve2Wj5NS5FVVDZx7G-25" value="1" style="text;html=1;strokeColor=none;fillColor=none;align=center;verticalAlign=middle;whiteSpace=wrap;rounded=0;" vertex="1" parent="1">
          <mxGeometry x="320" y="280" width="60" height="30" as="geometry" />
        </mxCell>
        <mxCell id="TZZve2Wj5NS5FVVDZx7G-26" value="n" style="text;html=1;strokeColor=none;fillColor=none;align=center;verticalAlign=middle;whiteSpace=wrap;rounded=0;" vertex="1" parent="1">
          <mxGeometry x="340" y="440" width="60" height="30" as="geometry" />
        </mxCell>
      </root>
    </mxGraphModel>
  </diagram>
</mxfile>
